<svg xmlns="http://www.w3.org/2000/svg" xmlns:xlink="http://www.w3.org/1999/xlink" version="1.1" x="0px" y="0px" viewBox="0 0 8 10" enable-background="new 0 0 8 8" xml:space="preserve"><path d="M7,5H1C0.448,5,0,4.552,0,4c0-0.554,0.448-1,1-1h6c0.552,0,1,0.446,1,1C8,4.552,7.552,5,7,5L7,5z M4,8C3.448,8,3,7.552,3,7  V1c0-0.553,0.448-1,1-1s1,0.447,1,1v6C5,7.552,4.552,8,4,8L4,8z"/><text x="0" y="23" fill="#000000" font-size="5px" font-weight="bold" font-family="'Helvetica Neue', Helvetica, Arial-Unicode, Arial, Sans-serif">Created by Muhamad Ulum</text><text x="0" y="28" fill="#000000" font-size="5px" font-weight="bold" font-family="'Helvetica Neue', Helvetica, Arial-Unicode, Arial, Sans-serif">from the Noun Project</text></svg>